<svg xmlns="http://www.w3.org/2000/svg" aria-hidden="true" viewBox="0 0 24 24" fill="currentColor" style="--sl-icon-size:1.5rem"><path d="M18.4 9.3a4.4 4.4 0 0 0 .7-.5l.1-.1a4.5 4.5 0 0 0 .8-1.1l.3-1c0-1-.6-2-2-3L12.7.4 6 6.6l-4.3 4 6 3.7a6.1 6.1 0 0 0 3 .9c1.5 0 2.8-.5 3.7-1.4 1-1 1.4-2.3.8-3.4a2.8 2.8 0 0 0-.4-.5l1 .1a4.6 4.6 0 0 0 1.8-.3 4.5 4.5 0 0 0 .7-.3zm-5.5 3.3c-1 1-2.8 1.2-4.2.4l-4.1-2.5 3.7-3.6 4.2 2.6c1.5.9 1.4 2.1.4 3.1zm.5-4.5-4-2.3L13 2.4l3.8 2.3c1.4.9 1.6 2 .6 3a3.3 3.3 0 0 1-4 .4zM15 18.5c-1 1-2.5 1.6-4.1 1.6a6.8 6.8 0 0 1-3.5-1l-5.6-3.4v1.4l6 3.6a6.1 6.1 0 0 0 3 .9c1.5 0 2.8-.5 3.7-1.4.7-.7 1.1-1.5 1.1-2.3l-.6.6zm0-2.1c-1 1-2.5 1.6-4.1 1.6a6.8 6.8 0 0 1-3.5-1l-5.6-3.4V15l6 3.6a6.1 6.1 0 0 0 3 .9c1.5 0 2.8-.5 3.7-1.4.7-.7 1.1-1.5 1.1-2.3v-.1l-.6.7zm0-2.1c-1 1-2.5 1.6-4.1 1.6a6.8 6.8 0 0 1-3.5-1l-5.6-3.4v1.3l6 3.6a6.1 6.1 0 0 0 3 1c1.5 0 2.8-.6 3.7-1.5.7-.7 1.1-1.5 1.1-2.3l-.6.7zm4.6 1.4a5.2 5.2 0 0 1-3.3 1.4v1.5a4.5 4.5 0 0 0 2.8-1.3c.8-.7 1.2-1.5 1.2-2.3v-.1l-.7.8zm-4.6 5c-1 1-2.5 1.6-4.1 1.6a6.8 6.8 0 0 1-3.5-1l-5.6-3.4v1.3l6 3.6a6.1 6.1 0 0 0 3 1c1.5 0 2.8-.5 3.7-1.5.7-.6 1.1-1.5 1.1-2.2V20l-.6.7zM19.7 9l-.1.2-1.2.8a5.2 5.2 0 0 1-1.5.5 5.2 5.2 0 0 1-.8 0l.1.4V12a4.6 4.6 0 0 0 1.5-.3A4.4 4.4 0 0 0 19 11l.1-.1a4.5 4.5 0 0 0 .8-1.1 2.6 2.6 0 0 0 .3-1.1v-.1l-.2.1-.4.6zm0 4.3a6 6 0 0 1-.1.1 5.2 5.2 0 0 1-3.3 1.5v1.4a4.5 4.5 0 0 0 2.8-1.2l1-1.2.2-1v-.1l-.2.2a4.8 4.8 0 0 1-.4.5zm0-2.1-.1.1a4.8 4.8 0 0 1-.6.5 5.2 5.2 0 0 1-2.7 1v1.4A4.5 4.5 0 0 0 19 13h.1a4.2 4.2 0 0 0 .8-1.2l.3-.9v-.3a4 4 0 0 1-.2.2l-.4.5z"/></svg>