<svg xmlns="http://www.w3.org/2000/svg" aria-hidden="true" viewBox="0 0 24 24" fill="currentColor" style="--sl-icon-size:1.5rem"><path d="M6.187 3.733h11.627v16.533h-1.707v-7.573h-.017a4.107 4.107 0 0 0-8.18 0h-.017v7.573H6.186z"/><path d="m3.093 6.08.693 2.347h.587v9.493a.533.533 0 0 0-.533.533v.64h-.107a.533.533 0 0 0-.533.533v.64h5.973v-.64a.533.533 0 0 0-.533-.533h-.107v-.64A.533.533 0 0 0 8 17.92h-.64V6.08zm13.12 11.84a.533.533 0 0 0-.533.533v.64h-.107a.533.533 0 0 0-.533.533v.64h5.973v-.64a.533.533 0 0 0-.533-.533h-.107v-.64a.533.533 0 0 0-.533-.533V8.427h.587l.693-2.347h-4.267v11.84z"/></svg>