<svg xmlns="http://www.w3.org/2000/svg" aria-hidden="true" viewBox="0 0 24 24" fill="currentColor" style="--sl-icon-size:1.5rem"><path d="M21.6 10.6v9.7a.7.7 0 0 1-.6.6h-8a.7.7 0 0 1-.6-.6v-1.8c0-2.2.3-4.4.8-5.3a2 2 0 0 1 1.3-1c1-.4 2.9-.2 3.7-.2 0 0 2.3 0 2.3-1.3 0-1-1-1-1-1-1.2 0-2 0-2.6-.2-1-.4-1-1.1-1-1.3 0-2.7-4-3-7.5-2.4-3.9.7 0 6.2 0 13.5v1a.7.7 0 0 1-.7.6H3.8a.7.7 0 0 1-.6-.6V3.5a.7.7 0 0 1 .6-.6h3.7a.7.7 0 0 1 .7.6c0 .6.6.9 1 .6 1.3-1 3-1.5 5-1.5 4.2 0 7.4 2.5 7.4 8zm-7-2a1.4 1.4 0 1 0-2.9 0 1.4 1.4 0 0 0 2.9 0z"/></svg>