<svg xmlns="http://www.w3.org/2000/svg" aria-hidden="true" viewBox="0 0 24 24" fill="currentColor" style="--sl-icon-size:1.5rem"><path d="m.734 13.269-.172-2.537q1.376 0 1.935-.645.387-.473.387-1.376 0-.387-.086-1.14-.086-.752-.086-1.161 0-.408-.043-1.225-.086-.731-.086-1.032 0-2.064 1.204-3.054Q4.991.111 7.184.111h1.075v2.537H7.7q-.946 0-1.355.537-.408.538-.408 1.613 0 .258.086.774.086.645.086.989 0 .258.043.817.086.774.086 1.204 0 1.634-.688 2.451-.602.731-1.892 1.032 1.29.344 1.892 1.032.688.86.688 2.451 0 .473-.086 1.247-.086.559-.064.817.021.258-.065.903-.086.473-.086.688 0 1.075.408 1.612.409.538 1.355.538h.559v2.537H7.184q-4.472 0-4.472-4.042 0-1.462.15-2.258.151-.795.151-2.3 0-2.021-2.279-2.021zm22.704-2.537v2.279q-2.279 0-2.279 2.021 0 .387.065 1.139.064.753.064 1.14.129.817.129 2.279 0 4.042-4.558 4.042h-1.075v-2.279h.516q.946 0 1.354-.538.409-.537.409-1.612 0-1.075-.129-1.634 0-.344-.086-1.011-.086-.666-.086-1.01 0-1.591.688-2.451.602-.688 1.892-1.032-1.29-.301-1.892-1.032-.688-.817-.688-2.451 0-.43.086-1.204.086-.559.086-.817.129-.688.129-1.72t-.43-1.548q-.43-.516-1.333-.645h-.516V.111h1.075q2.15 0 3.354.988 1.204.99 1.204 3.054 0 .387-.065 1.139-.064.753-.064 1.14-.129.817-.172 2.279.043.903.387 1.376.559.645 1.935.645z"/></svg>