<svg xmlns="http://www.w3.org/2000/svg" aria-hidden="true" viewBox="0 0 24 24" fill="currentColor" style="--sl-icon-size:1.5rem"><path d="M23.78 3.944h.038v16.15q0 .038-.076.152-.076.114-.076.19-.38.608-.95.608h-9.12V23.4q-.19-.038-.608-.114-.418-.076-.57-.114-.418-.076-1.311-.247-.893-.171-1.349-.228-.456-.057-1.406-.247t-1.425-.247q-.475-.057-1.425-.228-.95-.171-1.387-.228-.437-.057-1.33-.247t-1.311-.228q-.228-.076-.646-.133-.418-.057-.646-.095V3.564q.038 0 .228-.057t.228-.057q1.026-.722 2.736-.95.456-.076 1.368-.266.684-.152.988-.19l.304-.076q1.33-.19 1.976-.418.418-.038 1.311-.228t1.33-.247q.437-.057 1.33-.228T13.368.6h.114v2.242h9.234q.38 0 .684.247.304.247.38.589v.266zm-.912 15.77V3.792h-9.386v1.444h3.192V7.25h-3.192v.722h3.192v2.014h-3.192v.722h3.192v2.014h-3.192v.836h3.306v2.014h-3.306v.722h3.192v2.014h-3.192v1.406h9.386zm-12.502-2.242q0-.038-.019-.076t-.095-.038q-.418-.836-1.311-2.508-.893-1.672-1.311-2.508v-.228q1.216-2.356 2.622-4.864v-.114h-.114q-.608 0-.836.114-.684 0-1.178.114-.076 0-.095.019-.019.019-.019.095l-.95 2.014-.722 1.672q-.038-.114-.114-.418-.076-.304-.114-.418L5.046 7.744q-.114-.19-.152-.228-.038-.038-.247-.038t-.684.057q-.475.057-.703.057h-.494v.152l.38.798 1.786 3.572v.114L3.754 14.47q-.722 1.33-1.102 2.052 0 .038-.057.114-.057.076-.057.114h.722q.228 0 .646.057.418.057.646.057.114 0 .114-.019v-.095q.722-1.406 1.102-2.242.038-.19.209-.551.171-.361.247-.513 0-.266.114-.38v.114q.038.114.114.323.076.209.114.285.304.608.836 1.824l.494 1.14.076.114q.114.114.266.114.304 0 .893.076t.893.076q.076.228.152.285.076.057.19.057zm7.258-12.236h3.686V7.25h-3.686V5.236zm3.686 13.3h-3.686v-2.014h3.686v2.014zm0-5.586h-3.686v-2.014h3.686v2.014zm-3.686-4.864h3.686V10.1h-3.686V8.086zm0 5.7h3.686V15.8h-3.686v-2.014z"/></svg>